<?xml version="1.0" standalone="no"?>
<!DOCTYPE svg PUBLIC "-//W3C//DTD SVG 20010904//EN"
 "http://www.w3.org/TR/2001/REC-SVG-20010904/DTD/svg10.dtd">
<svg version="1.0" xmlns="http://www.w3.org/2000/svg"
 width="700.000000pt" height="700.000000pt" viewBox="0 0 700.000000 700.000000"
 preserveAspectRatio="xMidYMid meet">
<metadata>
Created by potrace 1.11, written by Peter Selinger 2001-2013
</metadata>
<g transform="translate(0.000000,700.000000) scale(0.100000,-0.100000)"
fill="#000000" stroke="none">
<path d="M3417 6574 c-1 -1 -42 -4 -92 -7 -349 -22 -773 -180 -1070 -398 -156
-114 -331 -283 -440 -423 -16 -21 -35 -44 -41 -50 -21 -22 -141 -212 -187
-297 -92 -170 -165 -363 -211 -563 -22 -95 -29 -130 -41 -216 -3 -19 -8 -53
-11 -75 -4 -22 -8 -955 -9 -2074 l-3 -2034 72 7 c103 9 133 15 210 42 286 99
498 334 572 635 17 70 19 156 20 1659 1 872 5 1617 8 1656 13 176 78 386 169
549 38 69 82 138 102 162 6 6 37 45 69 85 115 141 265 261 430 344 170 85 294
115 491 119 187 4 301 -12 460 -67 208 -71 393 -194 530 -351 120 -138 152
-166 235 -206 75 -36 148 -42 477 -39 l313 3 32 32 c27 27 32 40 32 80 0 39
-12 73 -68 187 -255 514 -677 898 -1210 1102 -86 33 -279 88 -341 97 -16 3
-46 8 -65 11 -80 14 -99 16 -185 21 -114 8 -244 12 -248 9z"/>
<path d="M4750 3703 c-120 -31 -182 -76 -350 -259 -57 -62 -169 -155 -230
-191 -105 -63 -292 -140 -380 -158 -178 -35 -365 -38 -525 -10 -119 22 -301
89 -410 151 -86 50 -94 55 -155 100 -30 22 -60 43 -65 46 -14 8 -14 -1008 0
-1020 45 -40 420 -139 595 -157 36 -4 79 -9 95 -11 43 -5 314 -5 350 0 17 3
62 8 100 12 39 3 73 8 76 10 4 2 24 6 45 10 68 10 166 34 249 60 550 175 994
539 1275 1044 62 111 120 243 120 272 0 37 -31 86 -64 102 -45 21 -643 21
-726 -1z"/>
</g>
</svg>
